<?xml version="1.0" encoding="UTF-8"?>
<svg width="215px" height="217px" viewBox="0 0 215 217" version="1.1" xmlns="http://www.w3.org/2000/svg" xmlns:xlink="http://www.w3.org/1999/xlink">
    <!-- Generator: Sketch 43.2 (39069) - http://www.bohemiancoding.com/sketch -->
    <title>Oval 1 + Group + Group 7</title>
    <desc>Created with Sketch.</desc>
    <defs></defs>
    <g id="Page-1" stroke="none" stroke-width="1" fill="none" fill-rule="evenodd">
        <g id="Artboard-5" transform="translate(-1093.000000, -2559.000000)" stroke="#FFFFFF" stroke-width="2">
            <g id="Oval-1-+-Group-+-Group-7" transform="translate(1093.000000, 2559.000000)">
                <rect id="Rectangle-1" x="41.0035113" y="1.2257555" width="132.913402" height="214.099585" rx="66.4567011"></rect>
                <path d="M31.1746908,92.9484021 C18.6194815,58.4212927 36.4030752,20.2504855 70.9039918,7.68154607 C105.399019,-4.88524765 143.540847,12.9146914 156.094629,47.4378764 L183.790699,123.602694 C196.345908,158.129803 178.562315,196.300611 144.061398,208.86955 C109.566371,221.436344 71.4245426,203.636405 58.8707604,169.11322 L31.1746908,92.9484021 Z" id="Rectangle-2"></path>
                <path d="M30.5392792,119.996213 C6.9433007,91.8495708 10.6113341,49.8924914 38.7370437,26.2703561 C66.8577627,2.65241245 108.781389,6.32150157 132.374526,34.4647548 L184.426111,96.554883 C208.022089,124.701525 204.354056,166.658605 176.228346,190.28074 C148.107627,213.898684 106.184001,210.229594 82.5908637,182.086341 L30.5392792,119.996213 Z" id="Rectangle-3"></path>
                <path d="M39.1842775,145.630162 C7.39380867,127.258924 -3.49622795,86.576554 14.8616595,54.7503046 C33.2163327,22.9296275 73.8654873,12.0254113 105.652202,30.3944806 L175.781112,70.9209336 C207.571581,89.2921722 218.461618,129.974542 200.10373,161.800791 C181.749057,193.621469 141.099902,204.525685 109.313188,186.156615 L39.1842775,145.630162 Z" id="Rectangle-4"></path>
                <path d="M56.0668692,166.758594 C19.9164691,160.378398 -4.21789061,125.87788 2.1577392,89.6863908 C8.53231847,53.500865 43.0043619,29.3383044 79.1508664,35.7178127 L158.898521,49.7925021 C195.048921,56.172698 219.18328,90.6732161 212.807651,126.864705 C206.433071,163.050231 171.961028,187.212792 135.814523,180.833283 L56.0668692,166.758594 Z" id="Rectangle-5"></path>
                <path d="M79.1508664,180.833283 C43.0007101,187.213436 8.53332613,163.055951 2.1577392,126.864705 C-4.21688295,90.6789361 19.920121,56.1720534 56.0668692,49.7925021 L135.814523,35.7178127 C171.96468,29.3376598 206.432064,53.495145 212.807651,89.6863908 C219.182273,125.87216 195.045269,160.379043 158.898521,166.758594 L79.1508664,180.833283 Z" id="Rectangle-6"></path>
                <path d="M105.652202,186.156615 C73.8622759,204.527541 33.2192341,193.626499 14.8616595,161.800791 C-3.49332651,129.979572 7.39702006,89.2903164 39.1842775,70.9209336 L109.313188,30.3944806 C141.103114,12.0235555 181.746156,22.9245975 200.10373,54.7503046 C218.458716,86.5715239 207.56837,127.26078 175.781112,145.630162 L105.652202,186.156615 Z" id="Rectangle-7"></path>
                <path d="M132.374526,182.086341 C108.779005,210.232438 66.862208,213.902417 38.7370437,190.28074 C10.6157793,166.662338 6.94568427,124.698682 30.5392792,96.554883 L82.5908637,34.4647548 C106.186385,6.31865829 148.103182,2.648679 176.228346,26.2703561 C204.34961,49.8887579 208.019705,91.852414 184.426111,119.996213 L132.374526,182.086341 Z" id="Rectangle-8"></path>
                <path d="M156.094629,169.11322 C143.539579,203.639892 105.404471,221.43833 70.9039918,208.86955 C36.4085281,196.302597 18.6207497,158.126316 31.1746908,123.602694 L58.8707604,47.4378764 C71.4258109,12.9112036 109.560918,-4.88723417 144.061398,7.68154607 C178.556862,20.248499 196.34464,58.4247805 183.790699,92.9484021 L156.094629,169.11322 Z" id="Rectangle-9"></path>
            </g>
        </g>
    </g>
</svg>